<?xml version="1.0" encoding="UTF-8" standalone="no"?>
<svg width="39px" height="35px" viewBox="0 0 39 35" version="1.1" xmlns="http://www.w3.org/2000/svg" xmlns:xlink="http://www.w3.org/1999/xlink">
    <!-- Generator: Sketch 40.3 (33839) - http://www.bohemiancoding.com/sketch -->
    <title>Alert Icon</title>
    <desc>Created with Sketch.</desc>
    <defs></defs>
    <g id="Page-1" stroke="none" stroke-width="1" fill="none" fill-rule="evenodd">
        <g id="Populated-dashboard-Updated-2" transform="translate(-482.000000, -193.000000)" fill="#F7942F">
            <g id="Group-4" transform="translate(32.000000, 174.000000)">
                <path d="M472.906432,31.2687463 L472.51056,38.6822171 C472.429243,40.1960746 471.120869,41.4367658 469.602629,41.4367658 L469.53592,41.4367658 C468.01768,41.4367658 466.695672,40.1970485 466.598773,38.6836779 L466.123045,31.2672856 C466.02566,29.7519673 467.188443,28.5122499 468.707169,28.5122499 L470.293579,28.5122499 C471.811819,28.5122499 472.987749,29.7529411 472.906432,31.2687463 M469.569031,49.5226835 C468.025958,49.5226835 466.775041,48.2717668 466.775041,46.7291806 C466.775041,45.1856205 468.025958,43.9351907 469.569031,43.9351907 C471.112104,43.9351907 472.362534,45.1856205 472.362534,46.7291806 C472.362534,48.2717668 471.112104,49.5226835 469.569031,49.5226835 M488.513918,49.8270131 L471.570303,20.4794074 C470.43138,18.5068642 468.567908,18.5068642 467.429472,20.4794074 L450.485856,49.8270131 C449.34742,51.7990694 450.278912,53.4127471 452.556272,53.4127471 L486.44399,53.4127471 C488.720862,53.4127471 489.652842,51.7990694 488.513918,49.8270131" id="Alert-Icon"></path>
            </g>
        </g>
    </g>
</svg>