<?xml version="1.0" encoding="UTF-8" standalone="no"?>
<svg width="29px" height="24px" viewBox="0 0 29 24" version="1.1" xmlns="http://www.w3.org/2000/svg" xmlns:xlink="http://www.w3.org/1999/xlink">
    <!-- Generator: Sketch 40.3 (33839) - http://www.bohemiancoding.com/sketch -->
    <title>Chat</title>
    <desc>Created with Sketch.</desc>
    <defs></defs>
    <g id="Symbols" stroke="none" stroke-width="1" fill="none" fill-rule="evenodd">
        <g id="Help-Area" transform="translate(-166.000000, 0.000000)" fill="#757575">
            <g transform="translate(8.000000, 0.000000)" id="Page-1">
                <g transform="translate(158.000000, 0.000000)">
                    <path d="M21.5897014,11.6229504 C21.5781467,11.6230638 21.5665354,11.6230638 21.5549807,11.6229504 L21.5566799,11.6235177 C20.4606838,11.6291915 19.6116408,10.7798298 19.6025783,9.67231206 C19.5957814,8.59089362 20.4793752,7.69387234 21.549883,7.69841135 C22.6320588,7.70096454 23.5077795,8.5809078 23.5068166,9.66493617 C23.5171818,10.7359716 22.6588498,11.6125674 21.5897014,11.6229504 M14.5003908,11.6229504 L14.50209,11.6235177 C13.4009963,11.6286241 12.54459,10.778695 12.5411916,9.6808227 C12.5230666,8.60587234 13.3782834,7.71974468 14.4513967,7.70153191 C14.460176,7.70141844 14.4689553,7.70130496 14.4777346,7.70124823 C15.5499416,7.68592908 16.4318361,8.56592908 16.4375002,9.65642553 C16.4420314,10.7611064 15.5975197,11.617844 14.5003908,11.6229504 M7.44976582,11.6240851 L7.45146504,11.6235177 C6.3515041,11.6286241 5.47527363,10.7769929 5.46904316,9.69443972 C5.45244746,8.60944681 6.3170666,7.71639716 7.40020527,7.69971631 C7.41578145,7.69948936 7.43135762,7.69943262 7.44693379,7.6995461 C8.52310566,7.70919149 9.37554707,8.59032624 9.37271504,9.68990071 C9.37305488,10.7552057 8.51319355,11.6200567 7.44976582,11.6240851 M28.9182619,6.77131915 C28.6616799,2.91316312 25.7350588,0.0762836879 21.9729885,0.0371347518 C16.9822131,-0.0123971631 11.992174,-0.0123971631 7.00287129,0.0371347518 C3.34501973,0.071177305 0.354961133,2.84848227 0.0927150391,6.48422695 C-0.0309314453,8.30170213 -0.0309314453,10.1255319 0.0927150391,11.9429504 C0.28585957,14.9925957 2.56791035,17.5775603 5.53814473,18.1840851 C6.21216816,18.3225248 6.63810566,18.609617 7.02552754,19.1486241 C8.17986348,20.7565674 9.38291035,22.3299007 10.6137111,23.9792624 C10.7887307,23.7460709 10.9139064,23.5820993 11.0379494,23.4164255 C12.1928518,21.8663546 13.3551174,20.3225248 14.4975588,18.7639433 C14.7003322,18.4870638 14.9138674,18.3838014 15.2565432,18.3866383 C17.4285412,18.4021844 19.6012756,18.4040567 21.7747463,18.3923121 C25.6110158,18.3701844 28.6254299,15.6235177 28.9035354,11.7977021 C29.0248596,10.1246241 29.0297873,8.44513475 28.9182619,6.77131915" id="Chat"></path>
                </g>
            </g>
        </g>
    </g>
</svg>