<?xml version="1.0" encoding="UTF-8" standalone="no"?>
<svg width="12px" height="12px" viewBox="0 0 12 12" version="1.1" xmlns="http://www.w3.org/2000/svg" xmlns:xlink="http://www.w3.org/1999/xlink">
    <!-- Generator: Sketch 40.3 (33839) - http://www.bohemiancoding.com/sketch -->
    <title>Edit Icon Small</title>
    <desc>Created with Sketch.</desc>
    <defs></defs>
    <g id="Desktop" stroke="none" stroke-width="1" fill="none" fill-rule="evenodd">
        <g id="MyplanMain" transform="translate(-1035.000000, -923.000000)" fill="#056DAE">
            <path d="M1035,934.464978 L1037.88629,933.422708 L1036.08236,931.618777 L1035,934.464978 L1035,934.464978 L1035,934.464978 L1035,934.464978 Z M1036.68367,930.656681 L1038.8083,932.78131 L1045.26236,926.327249 L1043.13773,924.20262 L1036.68367,930.656681 L1036.68367,930.656681 L1036.68367,930.656681 L1036.68367,930.656681 Z M1046.02402,923.400873 C1045.74341,923.120262 1045.38262,923 1044.98175,923 C1044.62096,923 1044.22009,923.160349 1043.93948,923.400873 L1046.02402,925.525502 C1046.62533,924.924192 1046.62533,924.002183 1046.02402,923.400873 L1046.02402,923.400873 L1046.02402,923.400873 L1046.02402,923.400873 Z" id="Edit-Icon-Small"></path>
        </g>
    </g>
</svg>