<?xml version="1.0" encoding="UTF-8" standalone="no"?>
<svg width="54px" height="40px" viewBox="0 0 54 40" version="1.1" xmlns="http://www.w3.org/2000/svg" xmlns:xlink="http://www.w3.org/1999/xlink">
    <!-- Generator: Sketch 41.2 (35397) - http://www.bohemiancoding.com/sketch -->
    <title>Event Drawer Icon</title>
    <desc>Created with Sketch.</desc>
    <defs>
        <rect id="path-1" x="0" y="0" width="54" height="40" rx="7"></rect>
        <mask id="mask-2" maskContentUnits="userSpaceOnUse" maskUnits="objectBoundingBox" x="0" y="0" width="54" height="40" fill="white">
            <use xlink:href="#path-1"></use>
        </mask>
    </defs>
    <g id="Page-1" stroke="none" stroke-width="1" fill="none" fill-rule="evenodd">
        <g id="Events-Session-Mobile" transform="translate(-17.000000, -24.000000)">
            <g id="Event-Drawer-Icon" transform="translate(17.000000, 24.000000)">
                <use id="Rectangle" stroke="#EEEEEE" mask="url(#mask-2)" stroke-width="2" fill="#F6F6F6" xlink:href="#path-1"></use>
                <g id="noun_64062_cc" transform="translate(16.000000, 7.000000)" fill="#CACACA">
                    <path d="M16.2955799,0 L16.2955799,9.12951359 C16.0964801,9.12951359 15.8973804,9.10043871 15.7267235,9.10043871 C10.9198867,9.10043871 7.02322013,13.0836978 7.02322013,17.9973532 C7.02322013,18.317177 7.05166295,18.6660756 7.08010577,18.9858993 L2.52925435,18.9858993 C2.13105485,18.9858993 1.81818382,18.6660756 1.81818382,18.2299523 L1.81818382,17.0378821 L2.52925435,17.0378821 C3.15499642,17.0378821 3.69541003,16.5726839 3.69541003,15.9911862 C3.69541003,15.4096886 3.18343924,14.9444904 2.52925435,14.9444904 L1.81818382,14.9444904 L1.81818382,13.7524202 L2.52925435,13.7524202 C3.15499642,13.7524202 3.69541003,13.287222 3.69541003,12.7057243 C3.69541003,12.1242267 3.18343924,11.6590285 2.52925435,11.6590285 L1.81818382,11.6590285 L1.81818382,10.4669583 L2.52925435,10.4669583 C3.15499642,10.4669583 3.69541003,10.0017601 3.69541003,9.42026244 C3.69541003,8.83876475 3.18343924,8.37356661 2.52925435,8.37356661 L1.81818382,8.37356661 L1.81818382,7.26872102 L2.52925435,7.26872102 C3.15499642,7.26872102 3.69541003,6.80352287 3.69541003,6.22202519 C3.69541003,5.64052751 3.18343924,5.17532936 2.52925435,5.17532936 L1.81818382,5.17532936 L1.81818382,3.98325912 L2.52925435,3.98325912 C3.15499642,3.98325912 3.69541003,3.51806097 3.69541003,2.93656329 C3.69541003,2.35506561 3.18343924,1.88986746 2.52925435,1.88986746 L1.81818382,1.88986746 L1.81818382,0.726872102 C1.81818382,0.319823725 2.13105485,0 2.52925435,0 L16.2955799,0 Z M2.50081153,15.4096886 L1.789741,15.4096886 L1.05022764,15.4096886 C0.652028142,15.4096886 0.310714286,15.6713625 0.310714286,15.9911862 C0.310714286,16.31101 0.623585321,16.5726839 1.05022764,16.5726839 L1.789741,16.5726839 L2.50081153,16.5726839 C2.89901103,16.5726839 3.21188206,16.31101 3.21188206,15.9911862 C3.21188206,15.7004374 2.89901103,15.4096886 2.50081153,15.4096886 Z M2.50081153,12.1533015 L1.789741,12.1533015 L1.05022764,12.1533015 C0.652028142,12.1533015 0.310714286,12.4149755 0.310714286,12.7347992 C0.310714286,13.0546229 0.623585321,13.3162969 1.05022764,13.3162969 L1.789741,13.3162969 L2.50081153,13.3162969 C2.89901103,13.3162969 3.21188206,13.0546229 3.21188206,12.7347992 C3.21188206,12.4149755 2.89901103,12.1533015 2.50081153,12.1533015 Z M2.50081153,8.89691452 L1.789741,8.89691452 L1.05022764,8.89691452 C0.652028142,8.89691452 0.310714286,9.15858848 0.310714286,9.4784122 C0.310714286,9.79823593 0.623585321,10.0599099 1.05022764,10.0599099 L1.789741,10.0599099 L2.50081153,10.0599099 C2.89901103,10.0599099 3.21188206,9.79823593 3.21188206,9.4784122 C3.21188206,9.15858848 2.89901103,8.89691452 2.50081153,8.89691452 Z M2.50081153,5.64052751 L1.789741,5.64052751 L1.05022764,5.64052751 C0.652028142,5.64052751 0.310714286,5.90220146 0.310714286,6.22202519 C0.310714286,6.54184891 0.623585321,6.80352287 1.05022764,6.80352287 L1.789741,6.80352287 L2.50081153,6.80352287 C2.89901103,6.80352287 3.21188206,6.54184891 3.21188206,6.22202519 C3.21188206,5.90220146 2.89901103,5.64052751 2.50081153,5.64052751 Z M1.05022764,3.54713586 L1.789741,3.54713586 L2.50081153,3.54713586 C2.89901103,3.54713586 3.21188206,3.2854619 3.21188206,2.96563817 C3.21188206,2.64581445 2.89901103,2.38414049 2.50081153,2.38414049 L1.789741,2.38414049 L1.05022764,2.38414049 C0.652028142,2.38414049 0.310714286,2.64581445 0.310714286,2.96563817 C0.310714286,3.2854619 0.652028142,3.54713586 1.05022764,3.54713586 Z M23.6907134,18.0264281 C23.6907134,13.5198211 20.106918,9.88546058 15.7267235,9.88546058 C11.3180862,9.88546058 7.76273348,13.548896 7.76273348,18.0264281 C7.76273348,22.5039603 11.346529,26.1673957 15.7267235,26.1673957 C20.106918,26.1673957 23.6907134,22.5039603 23.6907134,18.0264281 Z M22.2401296,18.0264281 C22.2401296,21.7189384 19.310519,24.6845766 15.6982806,24.6845766 C12.0860423,24.6845766 9.18487455,21.6898635 9.18487455,18.0264281 C9.18487455,14.3629927 12.1144852,11.3392048 15.6982806,11.3392048 C19.2820761,11.3392048 22.2401296,14.3339178 22.2401296,18.0264281 Z M17.0066504,19.3347979 C17.1488645,19.1894235 17.2057502,19.0149742 17.2057502,18.81145 L17.2057502,12.7638741 C17.2057502,12.3568257 16.8928791,12.0079271 16.4946796,12.0079271 C16.0964801,12.0079271 15.7551663,12.3277508 15.7836091,12.7638741 L15.7836091,18.055503 L12.8539985,18.055503 L12.8539985,18.055503 C12.455799,18.055503 12.142928,18.3753267 12.142928,18.7823751 C12.142928,19.1894235 12.455799,19.5092472 12.8539985,19.5092472 L16.4946796,19.5092472 L16.4946796,19.5092472 C16.6653366,19.5383221 16.8644363,19.4801723 17.0066504,19.3347979 Z" id="Shape"></path>
                </g>
            </g>
        </g>
    </g>
</svg>