<?xml version="1.0" encoding="UTF-8" standalone="no"?>
<svg width="14px" height="14px" viewBox="0 0 14 14" version="1.1" xmlns="http://www.w3.org/2000/svg" xmlns:xlink="http://www.w3.org/1999/xlink">
    <!-- Generator: Sketch 41.2 (35397) - http://www.bohemiancoding.com/sketch -->
    <title>Filter Icon</title>
    <desc>Created with Sketch.</desc>
    <defs></defs>
    <g id="Page-1" stroke="none" stroke-width="1" fill="none" fill-rule="evenodd">
        <g id="Provider-Home-Tablet" transform="translate(-41.000000, -212.000000)" fill="#B3B3B3">
            <g id="Filter-Icon" transform="translate(41.000000, 212.000000)">
                <path d="M13.959549,0.332413651 C13.8764456,0.131026979 13.6800846,0 13.462185,0 L0.53897611,0 C0.321255939,0 0.124894959,0.131026979 0.0416120575,0.332413651 C-0.0416708442,0.533800322 0.00427834297,0.765341148 0.158279915,0.919342721 L5.16225409,5.92349638 C5.27066545,6.03154877 5.38517944,6.30832082 5.38517944,6.46160444 L5.38517944,11.3078078 C5.38517944,11.450681 5.44189797,11.5876311 5.54295028,11.688504 L7.69681843,13.8423721 C7.79966563,13.9453988 7.93751319,14.000143 8.07769411,14.000143 C8.14697687,14.000143 8.21697759,13.9868608 8.28356801,13.95904 C8.48495468,13.8759366 8.61598166,13.6795756 8.61598166,13.4616759 L8.61598166,6.46160444 C8.61598166,6.30832082 8.73067514,6.03154877 8.83890701,5.9231374 L13.8428812,0.919163232 C13.9968828,0.765341148 14.0430114,0.533620833 13.959549,0.332413651 Z" id="Shape"></path>
            </g>
        </g>
    </g>
</svg>