<?xml version="1.0" encoding="UTF-8"?>
<svg width="22px" height="22px" viewBox="0 0 22 22" version="1.1" xmlns="http://www.w3.org/2000/svg" xmlns:xlink="http://www.w3.org/1999/xlink">
    <!-- Generator: Sketch 42 (36781) - http://www.bohemiancoding.com/sketch -->
    <title>Health Plan Icon</title>
    <desc>Created with Sketch.</desc>
    <defs></defs>
    <g id="Page-1" stroke="none" stroke-width="1" fill="none" fill-rule="evenodd">
        <g id="Location-Detail" transform="translate(-395.000000, -357.000000)" fill="#86D98E">
            <g id="Group-3" transform="translate(389.000000, 197.000000)">
                <g id="Health-Plan-Icon" transform="translate(6.000000, 160.000000)">
                    <path d="M20.48255,5.310525 C20.48255,5.100975 20.31315,4.9313 20.103325,4.9313 C20.0596,4.9313 20.019175,4.942575 19.9804,4.95605 L19.9793,4.953575 C16.831925,5.5792 11.189475,11.6798 11.189475,11.6798 L8.7384,10.6601 C8.67515,10.635625 8.606675,10.620775 8.53435,10.620775 C8.21975,10.620775 7.965375,10.8757 7.965375,11.18975 C7.965375,11.36025 8.041825,11.511225 8.160075,11.615725 L10.846,13.916925 C10.9417,13.989525 11.059675,14.034625 11.189475,14.034625 C11.3652,14.034625 11.5203,13.953225 11.6248,13.828375 C11.6248,13.828375 17.1534,6.625575 20.24275,5.6617 C20.246875,5.66005 20.251,5.65895 20.255125,5.6573 C20.25705,5.65675 20.258975,5.655925 20.2609,5.6551 L20.260625,5.654 C20.3907,5.593775 20.48255,5.463425 20.48255,5.310525 L20.48255,5.310525 Z" id="Shape"></path>
                    <path d="M18.62685,7.965375 C16.58415,9.634625 14.032975,12.560625 12.52735,14.5211 L12.512775,14.539525 L12.49765,14.557125 C12.171225,14.9479 11.69465,15.172025 11.1892,15.172025 C10.8141,15.172025 10.4566,15.050475 10.155475,14.820575 L10.1299,14.800775 L10.105425,14.78015 L7.408225,12.4696 C7.0389,12.14455 6.82715,11.67815 6.82715,11.189475 C6.82715,10.248425 7.59275,9.48255 8.534075,9.48255 C8.742525,9.48255 8.949325,9.521325 9.147875,9.59805 L9.161625,9.60355 L9.175375,9.609325 L10.90265,10.328175 C11.564575,9.642875 12.7127,8.498875 14.034075,7.356525 L14.034075,0 L7.965375,0 L7.965375,7.965375 L0,7.965375 L0,14.03435 L7.965375,14.03435 L7.965375,22 L14.03435,22 L14.03435,14.03435 L22,14.03435 L22,7.965375 L18.62685,7.965375 L18.62685,7.965375 Z" id="Shape"></path>
                </g>
            </g>
        </g>
    </g>
</svg>