<?xml version="1.0" encoding="UTF-8" standalone="no"?>
<svg width="33px" height="26px" viewBox="0 0 33 26" version="1.1" xmlns="http://www.w3.org/2000/svg" xmlns:xlink="http://www.w3.org/1999/xlink">
    <!-- Generator: Sketch 40.3 (33839) - http://www.bohemiancoding.com/sketch -->
    <title>Mobile Menu</title>
    <desc>Created with Sketch.</desc>
    <defs></defs>
    <g id="Mobile" stroke="none" stroke-width="1" fill="none" fill-rule="evenodd">
        <g id="Dashboard" transform="translate(-22.000000, -50.000000)" fill="#FFFFFF">
            <g id="Mobile-Nav" transform="translate(-1.000000, 0.000000)">
                <g transform="translate(23.000000, 30.000000)" id="Mobile-Menu">
                    <path d="M30.3061224,40.2034082 L2.69387755,40.2034082 C1.20618367,40.2034082 0,41.4095918 0,42.8986327 C0,44.3863265 1.20685714,45.5925102 2.69387755,45.5925102 L30.3061224,45.5925102 C31.7938163,45.5925102 33,44.3863265 33,42.8986327 C33,41.4095918 31.7938163,40.2034082 30.3061224,40.2034082 M2.69387755,25.3877551 L30.3061224,25.3877551 C31.7938163,25.3877551 33,24.180898 33,22.6938776 C33,21.2048367 31.7951633,20 30.3074694,20 L2.69387755,20 C1.20685714,20 0,21.2048367 0,22.6938776 C0,24.180898 1.20685714,25.3877551 2.69387755,25.3877551 M30.3061224,30.1013673 L2.69387755,30.1013673 C1.20618367,30.1013673 0,31.307551 0,32.7965918 C0,34.2842857 1.20685714,35.4904694 2.69387755,35.4904694 L30.3061224,35.4904694 C31.7938163,35.4904694 33,34.2842857 33,32.7965918 C33,31.307551 31.7938163,30.1013673 30.3061224,30.1013673"></path>
                </g>
            </g>
        </g>
    </g>
</svg>