<?xml version="1.0" encoding="UTF-8" standalone="no"?>
<svg width="22px" height="29px" viewBox="0 0 22 29" version="1.1" xmlns="http://www.w3.org/2000/svg" xmlns:xlink="http://www.w3.org/1999/xlink">
    <!-- Generator: Sketch 41.2 (35397) - http://www.bohemiancoding.com/sketch -->
    <title>New Task Icon</title>
    <desc>Created with Sketch.</desc>
    <defs></defs>
    <g id="Page-1" stroke="none" stroke-width="1" fill="none" fill-rule="evenodd">
        <g id="Tasks-Main" transform="translate(-1126.000000, -261.000000)" fill="#FFFFFF">
            <g id="NEW-TASK" transform="translate(1085.000000, 250.000000)">
                <g id="noun_570988_cc" transform="translate(41.000000, 11.000000)">
                    <g id="Group">
                        <path d="M0,28.275 L0,3.41785714 L7.63125,3.41785714 C7.96125,1.82838095 9.343125,0.653190476 11,0.653190476 C12.656875,0.653190476 14.03875,1.8297619 14.364625,3.3957619 L22,3.41785714 L22,28.275 L0,28.275 Z M11,3.41785714 C10.6205,3.41785714 10.3125,3.72719048 10.3125,4.10833333 C10.3125,4.48947619 10.6205,4.79880952 11,4.79880952 C11.3795,4.79880952 11.6875,4.48947619 11.6875,4.10833333 C11.6875,3.72719048 11.3795,3.41785714 11,3.41785714 Z M19.25,6.1797619 L15.125,6.1797619 C15.125,6.94204762 14.509,7.56071429 13.75,7.56071429 L8.25,7.56071429 C7.491,7.56071429 6.875,6.94204762 6.875,6.1797619 L2.75,6.1797619 L2.75,25.5130952 L19.25,25.5130952 L19.25,6.1797619 Z M7.45525,15.284381 L9.625,17.4649048 L14.535125,12.5321429 L16.479375,14.4861905 L9.625,21.3702381 L5.509625,17.2370476 L7.45525,15.284381 Z" id="New-Task-Icon"></path>
                    </g>
                </g>
            </g>
        </g>
    </g>
</svg>