<?xml version="1.0" encoding="UTF-8" standalone="no"?>
<svg width="18px" height="18px" viewBox="0 0 18 18" version="1.1" xmlns="http://www.w3.org/2000/svg" xmlns:xlink="http://www.w3.org/1999/xlink">
    <!-- Generator: Sketch 41.2 (35397) - http://www.bohemiancoding.com/sketch -->
    <title>Paste URL Icon</title>
    <desc>Created with Sketch.</desc>
    <defs></defs>
    <g id="Page-1" stroke="none" stroke-width="1" fill="none" fill-rule="evenodd">
        <g id="Provider-New-Message" transform="translate(-633.000000, -704.000000)" fill="#9E9E9E">
            <g id="Paste-URL-Icon" transform="translate(633.000000, 704.000000)">
                <path d="M14.5543511,9.22284 C13.9226487,9.22284 13.4104479,9.73512 13.4104479,10.36656 L13.4104479,15.22278 C13.4104479,15.48648 13.1966409,15.7005 12.9335215,15.7005 L2.7647328,15.7005 C2.50161346,15.7005 2.28744655,15.48648 2.28744655,15.22278 L2.28744655,5.05314 C2.28744655,4.78998 2.50161346,4.57578 2.7647328,4.57578 L7.62020255,4.57578 C8.25208491,4.57578 8.76392582,4.06368 8.76392582,3.43188 C8.76392582,2.80008 8.25190494,2.28816 7.62020255,2.28816 L2.7647328,2.28816 C1.24036834,2.28798 0,3.52836 0,5.05314 L0,15.22296 C0,16.74792 1.24036834,17.9883 2.7647328,17.9883 L12.9333416,17.9883 C14.457706,17.9883 15.6978944,16.74774 15.6978944,15.22296 L15.6978944,10.36674 C15.6980744,9.73512 15.1860535,9.22284 14.5543511,9.22284 L14.5543511,9.22284 Z" id="Shape"></path>
                <path d="M15.22296,0 L10.48122,0 C9.84942,0 9.3375,0.5121 9.3375,1.1439 C9.3375,1.7757 9.84942,2.28798 10.48122,2.28798 L14.08302,2.28798 L6.4917,9.87894 C6.04476,10.32552 6.04476,11.04984 6.4917,11.4966 C6.7149,11.7198 7.00794,11.83158 7.30044,11.83158 C7.5933,11.83158 7.88598,11.7198 8.10936,11.4966 L15.70032,3.90564 L15.70032,7.50708 C15.70032,8.13888 16.2126,8.65098 16.84404,8.65098 C17.4762,8.65098 17.98812,8.13888 17.98812,7.50708 L17.98812,2.76516 C17.9883,1.24056 16.7481,0 15.22296,0 L15.22296,0 Z" id="Shape"></path>
            </g>
        </g>
    </g>
</svg>