<?xml version="1.0" encoding="UTF-8" standalone="no"?>
<svg width="46px" height="39px" viewBox="0 0 46 39" version="1.1" xmlns="http://www.w3.org/2000/svg" xmlns:xlink="http://www.w3.org/1999/xlink">
    <!-- Generator: Sketch 40.3 (33839) - http://www.bohemiancoding.com/sketch -->
    <title>Preventative Icon</title>
    <desc>Created with Sketch.</desc>
    <defs>
        <polygon id="path-1" points="0 33.9160189 42.0670189 33.9160189 42.0670189 0 0 0"></polygon>
    </defs>
    <g id="Symbols" stroke="none" stroke-width="1" fill="none" fill-rule="evenodd">
        <g id="All-Shcedule" transform="translate(-26.000000, -45.000000)">
            <g id="Prev-Schedule-Internal-contents">
                <g transform="translate(25.000000, 45.000000)">
                    <g id="Preventative-Icon" transform="translate(1.000000, 0.000000)">
                        <g id="Page-1">
                            <mask id="mask-2" fill="white">
                                <use xlink:href="#path-1"></use>
                            </mask>
                            <g id="Clip-2"></g>
                            <path d="M19.6185471,32.5591132 L19.4713773,31.3214151 L5.5991509,31.3214151 C4.14364146,31.3214151 2.90299995,30.3603962 2.50196222,29.045434 C2.48062259,28.9534528 2.45928297,28.8688302 2.4372075,28.7768491 C2.40850939,28.6708868 2.39452826,28.5649245 2.38716976,28.4589623 C2.35847165,28.2823585 2.35111316,28.0983962 2.35111316,27.914434 C2.37245278,24.7127547 2.37245278,21.4831132 2.37245278,18.3027736 L2.37245278,8.71245283 C2.37245278,6.95966038 3.82060373,5.53211321 5.5991509,5.53211321 L36.4886226,5.53211321 C38.2664339,5.53211321 39.7153207,6.95966038 39.7153207,8.71245283 L39.7153207,12.0760189 C40.5512452,12.5160566 41.3393396,13.0348302 42.0670943,13.625717 L42.0670943,8.47550943 C42.0670943,5.62850943 39.7506415,3.3120566 36.9036415,3.3120566 L18.7060943,3.3120566 C17.8061509,2.36796226 16.9724339,1.54160377 16.1541698,0.804283019 C15.6449622,0.347320755 14.915,0.0448867925 14.2806981,0.0367924528 C12.7758867,0.0147169811 11.2563584,0 9.4932641,0 C8.30560373,0 7.11058486,0.00735849057 5.91556599,0.0147169811 L5.32541505,0.0147169811 C2.00599995,0.0220754717 0.0221508968,2.02137736 0.0147924063,5.35550943 L0.0147924063,13.5433019 C0.0221508968,18.4337547 0.0221508968,23.4941887 7.54251199e-05,28.5023774 C-0.00728306545,30.0513396 0.523999953,31.4384151 1.49752826,32.4193019 C1.6152641,32.5370377 1.74109429,32.6555094 1.87354712,32.7585283 C2.00599995,32.8689057 2.14654712,32.9653019 2.28635844,33.0609623 C2.46369807,33.1786981 2.64766033,33.2824528 2.83971693,33.3781132 C2.93537731,33.4296226 3.03913203,33.4737736 3.1421509,33.5179245 C3.26724524,33.569434 3.39307543,33.6135849 3.51816976,33.6503774 C3.90890561,33.7681132 4.32245278,33.8571509 4.74262259,33.8939434 C4.91996222,33.9086604 5.10392448,33.9160189 5.28862259,33.9160189 L20.1255471,33.9160189 C19.862849,33.5171887 19.677415,33.0616981 19.6185471,32.5591132" id="Fill-1" fill="#757575" mask="url(#mask-2)"></path>
                        </g>
                        <path d="M41.7818491,28.4461887 L41.7811132,28.4461887 L35.4888679,28.4461887 L35.4888679,34.7671321 L31.4402264,34.7671321 L31.4402264,28.5241887 L25.1406226,28.5241887 L25.1406226,24.4681887 L31.3695849,24.4681887 L31.3695849,18.1472453 L35.4609057,18.1472453 L35.4609057,24.4328679 L41.7818491,24.4328679 L41.7818491,28.4461887 Z M33.4645472,14 C26.591717,14 21,19.5843585 21,26.4571887 C21,33.3226604 26.591717,38.9143774 33.4645472,38.9143774 C40.3300189,38.9143774 45.9217358,33.3226604 45.9217358,26.4571887 C45.9217358,19.5850943 40.3300189,14 33.4645472,14 L33.4645472,14 Z" id="Page-1" fill="#757575"></path>
                    </g>
                </g>
            </g>
        </g>
    </g>
</svg>