<?xml version="1.0" encoding="UTF-8" standalone="no"?>
<svg width="22px" height="22px" viewBox="0 0 22 22" version="1.1" xmlns="http://www.w3.org/2000/svg" xmlns:xlink="http://www.w3.org/1999/xlink">
    <!-- Generator: Sketch 41.2 (35397) - http://www.bohemiancoding.com/sketch -->
    <title>Search Icon</title>
    <desc>Created with Sketch.</desc>
    <defs></defs>
    <g id="Page-1" stroke="none" stroke-width="1" fill="none" fill-rule="evenodd">
        <g id="Provider-Messages" transform="translate(-541.000000, -267.000000)" fill="#ABABAB">
            <g id="Search-Icon" transform="translate(541.000000, 267.000000)">
                <path d="M21.58156,18.11568 L15.71196,12.24564 C17.33072,9.14892 16.84188,5.22896 14.24412,2.63076 C12.69312,1.07976 10.6304,0.22572 8.437,0.22572 C6.2436,0.22572 4.18132,1.07976 2.63032,2.63076 C1.07932,4.18132 0.22528,6.2436 0.22528,8.43744 C0.22528,10.63084 1.07932,12.69312 2.63032,14.24412 C4.18088,15.79468 6.24272,16.64872 8.43612,16.64872 C9.7856,16.64872 11.08448,16.32312 12.24608,15.71284 L18.11568,21.58156 C18.2446,21.71048 18.41356,21.77472 18.58252,21.77472 C18.75148,21.77472 18.92044,21.71048 19.04936,21.58156 L21.582,19.04892 C21.8394,18.79108 21.8394,18.37352 21.58156,18.11568 Z M3.564,13.31088 C2.26248,12.00892 1.54572,10.2784 1.54572,8.43744 C1.54572,6.59648 2.26248,4.86552 3.564,3.564 C4.86552,2.26248 6.59648,1.54572 8.43744,1.54572 C10.2784,1.54572 12.00936,2.26248 13.31132,3.564 C15.5936,5.84672 15.92888,9.34164 14.33344,11.99044 C14.00696,12.45772 13.64924,12.88804 13.26864,13.26864 C12.88408,13.65276 12.4498,14.01444 11.97724,14.34268 C10.91772,14.98068 9.70508,15.32828 8.43656,15.32828 C6.5956,15.32872 4.86552,14.61196 3.564,13.31088 Z M18.58208,20.18148 L13.38216,14.98244 C13.6818,14.75496 13.97264,14.51428 14.24324,14.24324 C14.51516,13.97132 14.7554,13.68048 14.98156,13.38172 L20.18148,18.58208 L18.58208,20.18148 Z" id="Shape"></path>
            </g>
        </g>
    </g>
</svg>