<?xml version="1.0" encoding="UTF-8" standalone="no"?>
<svg width="90px" height="90px" viewBox="0 0 90 90" version="1.1" xmlns="http://www.w3.org/2000/svg" xmlns:xlink="http://www.w3.org/1999/xlink">
    <!-- Generator: Sketch 40.3 (33839) - http://www.bohemiancoding.com/sketch -->
    <title>Session Icon</title>
    <desc>Created with Sketch.</desc>
    <defs></defs>
    <g id="Desktop" stroke="none" stroke-width="1" fill="none" fill-rule="evenodd">
        <g id="MyplanMain" transform="translate(-276.000000, -1267.000000)" fill="#878787">
            <g id="noun_463659_cc-copy" transform="translate(276.000000, 1267.000000)">
                <g id="Group" transform="translate(0.000000, 0.275050)">
                    <path d="M45,0.640210714 C20.3591532,0.640210714 0.346957243,20.6067348 0.346902285,45.1915157 C0.346758021,69.7762965 20.3590158,89.7428206 45,89.7428206 C69.6409842,89.7428206 89.6532385,69.7762965 89.6530977,45.1915157 C89.6530428,20.6067348 69.6408468,0.640210714 45,0.640210714 L45,0.640210714 Z M45,4.06723417 C67.7846175,4.06723417 86.2181925,22.4586983 86.218244,45.1915157 C86.2183746,67.9243331 67.7847446,86.3157971 45,86.3157971 C22.215252,86.3157971 3.78162543,67.9243331 3.78175596,45.1915157 C3.78180748,22.4586983 22.2153825,4.06723417 45,4.06723417 L45,4.06723417 Z M51.8697073,17.7150874 L51.8093295,17.775328 L24.390878,17.775328 L24.390878,69.1806799 L26.1083048,69.1806799 C36.4605931,69.1806799 51.8090581,69.1799944 62.1608518,69.1806799 L62.1608518,65.7536564 L62.1608518,55.479279 L58.7259981,55.479279 L58.7259981,65.7536564 C49.1480667,65.7533137 37.0863788,65.7533137 27.8257316,65.7536564 L27.8257316,21.2023515 L48.4952315,21.2023515 L48.4751067,31.4834218 L62.1608518,31.4834218 L62.1608518,28.0563984 L62.127307,28.0563984 L51.8697073,17.7150874 L51.8697073,17.7150874 Z M66.2196123,35.0309257 L64.401558,36.844839 L67.1185788,39.5155081 L68.9165117,37.7216737 L66.2196123,35.0309257 L66.2196123,35.0309257 Z M31.2471681,38.3441617 L31.2471681,41.7711852 L51.8562908,41.7711852 L51.8562908,38.3441617 L31.2471681,38.3441617 L31.2471681,38.3441617 Z M61.9931348,39.2946261 L49.5283703,51.6707319 L52.2252697,54.3681729 L64.6833225,41.9385199 L61.9931348,39.2946261 L61.9931348,39.2946261 Z M31.2471681,45.1982086 L31.2471681,48.6252321 L44.9865835,48.6252321 L44.9865835,45.1982086 L31.2471681,45.1982086 L31.2471681,45.1982086 Z M31.2471681,52.0522555 L31.2471681,55.479279 L41.5517298,55.479279 L41.5517298,52.0522555 L31.2471681,52.0522555 L31.2471681,52.0522555 Z M47.5895568,54.5890583 L46.7375516,57.1459365 L49.3002754,56.2891806 L47.5895568,54.5890583 L47.5895568,54.5890583 Z M31.2471681,58.9063025 L31.2471681,62.3333259 L38.1370009,62.3333259 L38.1370009,58.9063025 L31.2471681,58.9063025 L31.2471681,58.9063025 Z" id="Session-Icon"></path>
                </g>
            </g>
        </g>
    </g>
</svg>