<?xml version="1.0" encoding="UTF-8" standalone="no"?>
<svg width="21px" height="22px" viewBox="0 0 21 22" version="1.1" xmlns="http://www.w3.org/2000/svg" xmlns:xlink="http://www.w3.org/1999/xlink">
    <!-- Generator: Sketch 41.2 (35397) - http://www.bohemiancoding.com/sketch -->
    <title>Sidebar Appointment Icon</title>
    <desc>Created with Sketch.</desc>
    <defs></defs>
    <g id="Page-1" stroke="none" stroke-width="1" fill="none" fill-rule="evenodd">
        <g id="Provider-Messages" transform="translate(-73.000000, -425.000000)" fill="#BABABA">
            <g id="appointment-1" transform="translate(59.000000, 403.000000)">
                <g id="Sidebar-Appointment-Icon" transform="translate(14.000000, 22.000000)">
                    <path d="M14.9879333,11.1618351 C15.9852,9.76276596 16.5666667,7.97832447 16.5666667,6.28324468 C16.5666667,2.94707447 13.8450667,0.232712766 10.5,0.232712766 C7.15493333,0.232712766 4.43333333,2.94707447 4.43333333,6.28324468 C4.43333333,7.97878989 5.0148,9.76323138 6.01206667,11.1618351 C2.62593333,12.2285904 0.233333333,14.3765293 0.233333333,16.5226064 L0.233333333,19.7805851 C0.233333333,20.8073138 1.07053333,21.6422872 2.1,21.6422872 L18.9,21.6422872 C19.929,21.6422872 20.7666667,20.8073138 20.7666667,19.7805851 L20.7666667,16.5226064 C20.7666667,14.3765293 18.3740667,12.2285904 14.9879333,11.1618351 Z M10.5,2.09441489 C12.8160667,2.09441489 14.7,3.97333777 14.7,6.28324468 C14.7,9.15398936 12.6583333,11.8683511 10.5,11.8683511 C8.3412,11.8683511 6.3,9.15398936 6.3,6.28324468 C6.3,3.97333777 8.1844,2.09441489 10.5,2.09441489 Z M18.9,19.7805851 L2.1,19.7805851 L2.1,16.5226064 C2.1,15.2608378 4.28493333,13.4447473 7.4802,12.6893617 C8.34913333,13.3367686 9.36973333,13.7300532 10.5,13.7300532 C11.6302667,13.7300532 12.6499333,13.3363032 13.5198,12.6893617 C16.7155333,13.4447473 18.9,15.2608378 18.9,16.5226064 L18.9,19.7805851 Z" id="Shape"></path>
                </g>
            </g>
        </g>
    </g>
</svg>