<?xml version="1.0" encoding="UTF-8" standalone="no"?>
<svg width="18px" height="28px" viewBox="0 0 18 28" version="1.1" xmlns="http://www.w3.org/2000/svg" xmlns:xlink="http://www.w3.org/1999/xlink">
    <!-- Generator: Sketch 41.2 (35397) - http://www.bohemiancoding.com/sketch -->
    <title>Sidebar Event Icon</title>
    <desc>Created with Sketch.</desc>
    <defs></defs>
    <g id="Page-1" stroke="none" stroke-width="1" fill="none" fill-rule="evenodd">
        <g id="Provider-Messages" transform="translate(-74.000000, -565.000000)" fill="#B4B4B4">
            <g id="Event" transform="translate(59.000000, 532.000000)">
                <g id="Sidebar-Event-Icon" transform="translate(15.000000, 33.000000)">
                    <g id="Group">
                        <path d="M9,5.37190244 C7.06666667,5.37190244 5.46666667,6.97346341 5.46666667,8.90868293 C5.46666667,10.8439024 7.06666667,12.4454634 9,12.4454634 C10.9333333,12.4454634 12.5333333,10.8439024 12.5333333,8.90868293 C12.5333333,6.97346341 10.9333333,5.37190244 9,5.37190244 Z M9,10.944 C7.9,10.944 6.96666667,10.043122 6.96666667,8.90868293 C6.96666667,7.80760976 7.86666667,6.87336585 9,6.87336585 C10.1,6.87336585 11.0333333,7.7742439 11.0333333,8.90868293 C11.0333333,10.043122 10.1,10.944 9,10.944 Z" id="Shape"></path>
                        <path d="M17.8333333,8.90868293 C17.8333333,4.03726829 13.8666667,0.0667317073 9,0.0667317073 C4.13333333,0.0667317073 0.166666667,4.03726829 0.166666667,8.90868293 C0.166666667,10.3100488 0.5,11.7447805 1.16666667,12.9793171 L1.16666667,12.9793171 L8.33333333,26.892878 C8.46666667,27.1598049 8.73333333,27.2932683 9,27.2932683 C9.26666667,27.2932683 9.53333333,27.126439 9.66666667,26.892878 L16.8666667,12.9793171 L16.8666667,12.9793171 C17.5,11.7114146 17.8333333,10.3100488 17.8333333,8.90868293 Z M9,24.8909268 L2.5,12.2786341 L2.5,12.2786341 C1.96666667,11.2442927 1.7,10.1098537 1.7,8.90868293 C1.7,4.87141463 5,1.56819512 9.03333333,1.56819512 C13.0666667,1.56819512 16.3666667,4.87141463 16.3666667,8.90868293 C16.3666667,10.0764878 16.1,11.2109268 15.5666667,12.2452683 L15.5666667,12.2452683 L9,24.8909268 Z" id="Shape"></path>
                    </g>
                </g>
            </g>
        </g>
    </g>
</svg>