<?xml version="1.0" encoding="UTF-8" standalone="no"?>
<svg width="23px" height="21px" viewBox="0 0 23 21" version="1.1" xmlns="http://www.w3.org/2000/svg" xmlns:xlink="http://www.w3.org/1999/xlink">
    <!-- Generator: Sketch 41.2 (35397) - http://www.bohemiancoding.com/sketch -->
    <title>Toolbox Icon</title>
    <desc>Created with Sketch.</desc>
    <defs></defs>
    <g id="Page-1" stroke="none" stroke-width="1" fill="none" fill-rule="evenodd">
        <g id="Provider-Messages-Conversation" transform="translate(-1147.000000, -1000.000000)" fill="#8F8F8F">
            <g id="Toolbox-Icon" transform="translate(1147.000000, 1000.000000)">
                <g id="Group" transform="translate(0.000000, 0.147563)">
                    <g transform="translate(0.000463, 0.081971)" id="Shape">
                        <path d="M8.16084965,3.73034936e-14 C7.77448145,0.0522267186 7.44465482,0.45959513 7.44465482,0.887854231 L7.44465482,2.3606477 L2.55379935,2.3606477 C1.24391701,2.35020235 0.0282708414,3.14404844 0,4.57506065 L0,17.8406472 C0,19.3865583 1.15910449,20.6399994 2.55379935,20.6399994 L20.3173114,20.6399994 C21.7120061,20.6399994 22.8711107,19.3865583 22.8711107,17.8406472 L22.8711107,4.57506065 C22.7580273,2.92469627 21.5612283,2.37109306 20.3173114,2.3606477 L15.4264559,2.3606477 L15.4264559,0.887854231 C15.4264559,0.428259101 15.0495113,3.73034936e-14 14.6254487,3.73034936e-14 L8.16084965,3.73034936e-14 Z M9.04666919,1.77570846 L13.8338651,1.77570846 L13.8338651,2.3606477 L9.04666919,2.3606477 L9.04666919,1.77570846 Z M2.55379935,4.1363562 L20.3173114,4.1363562 C20.8073394,4.14680063 21.2785199,4.19902813 21.2785199,4.57506065 L21.2785199,6.24631559 L18.4043178,7.95935211 L4.46679289,7.95935211 L1.59259072,6.24631559 L1.59259072,4.57506065 C1.60201432,4.07368396 2.25224369,4.1363562 2.55379935,4.1363562 L2.55379935,4.1363562 Z M1.59259072,8.26226707 L3.87310533,9.62016172 C3.98618874,9.69327898 4.11811934,9.73506057 4.25947353,9.73506057 L9.31053038,9.73506057 L9.31053038,10.9153844 C9.31053038,11.3749795 9.68747499,11.7927931 10.102114,11.7927931 L12.7689967,11.7927931 C13.1836357,11.7927931 13.5605803,11.3749795 13.5605803,10.9153844 L13.5605803,9.73506057 L18.6210608,9.73506057 C18.7529914,9.73506057 18.884922,9.69327898 18.9980054,9.62016172 L21.2785199,8.26226707 L21.2785199,17.8406472 C21.2785199,18.4151412 20.8733045,18.8747363 20.3173114,18.8747363 L2.55379935,18.8747363 C1.99780614,18.8747363 1.59259072,18.4151412 1.59259072,17.8406472 L1.59259072,8.26226707 Z"></path>
                    </g>
                </g>
            </g>
        </g>
    </g>
</svg>