<?xml version="1.0" encoding="UTF-8" standalone="no"?>
<svg width="26px" height="26px" viewBox="0 0 26 26" version="1.1" xmlns="http://www.w3.org/2000/svg" xmlns:xlink="http://www.w3.org/1999/xlink">
    <!-- Generator: Sketch 40.3 (33839) - http://www.bohemiancoding.com/sketch -->
    <title>URL icon</title>
    <desc>Created with Sketch.</desc>
    <defs></defs>
    <g id="Desktop" stroke="none" stroke-width="1" fill="none" fill-rule="evenodd">
        <g id="Messages-Main" transform="translate(-343.000000, -538.000000)">
            <g id="URL-icon" transform="translate(344.000000, 539.000000)">
                <g id="URL" stroke="#BDBDBD">
                    <ellipse id="Oval-2" cx="12" cy="12" rx="12" ry="12"></ellipse>
                </g>
                <g id="noun_16896_cc" transform="translate(6.000000, 6.000000)" fill="#B9B9B9">
                    <path d="M9.7044,6.14856 C9.2832,6.14856 8.94168,6.49008 8.94168,6.91104 L8.94168,10.14852 C8.94168,10.32432 8.79912,10.467 8.62368,10.467 L1.84344,10.467 C1.668,10.467 1.5252,10.32432 1.5252,10.14852 L1.5252,3.36876 C1.5252,3.19332 1.668,3.05052 1.84344,3.05052 L5.08092,3.05052 C5.50224,3.05052 5.84352,2.70912 5.84352,2.28792 C5.84352,1.86672 5.50212,1.52544 5.08092,1.52544 L1.84344,1.52544 C0.82704,1.52532 0,2.35224 0,3.36876 L0,10.14864 C0,11.16528 0.82704,11.9922 1.84344,11.9922 L8.62356,11.9922 C9.63996,11.9922 10.46688,11.16516 10.46688,10.14864 L10.46688,6.91116 C10.467,6.49008 10.1256,6.14856 9.7044,6.14856 L9.7044,6.14856 Z" id="Shape"></path>
                    <path d="M10.14864,0 L6.98748,0 C6.56628,0 6.225,0.3414 6.225,0.7626 C6.225,1.1838 6.56628,1.52532 6.98748,1.52532 L9.38868,1.52532 L4.3278,6.58596 C4.02984,6.88368 4.02984,7.36656 4.3278,7.6644 C4.4766,7.8132 4.67196,7.88772 4.86696,7.88772 C5.0622,7.88772 5.25732,7.8132 5.40624,7.6644 L10.46688,2.60376 L10.46688,5.00472 C10.46688,5.42592 10.8084,5.76732 11.22936,5.76732 C11.6508,5.76732 11.99208,5.42592 11.99208,5.00472 L11.99208,1.84344 C11.9922,0.82704 11.1654,0 10.14864,0 L10.14864,0 Z" id="Shape"></path>
                </g>
            </g>
        </g>
    </g>
</svg>