<?xml version="1.0" encoding="UTF-8" standalone="no"?>
<svg width="49px" height="49px" viewBox="0 0 49 49" version="1.1" xmlns="http://www.w3.org/2000/svg" xmlns:xlink="http://www.w3.org/1999/xlink">
    <!-- Generator: Sketch 41.2 (35397) - http://www.bohemiancoding.com/sketch -->
    <title>User</title>
    <desc>Created with Sketch.</desc>
    <defs></defs>
    <g id="Desktop" stroke="none" stroke-width="1" fill="none" fill-rule="evenodd">
        <g id="Conversation-Detail" transform="translate(-1228.000000, -319.000000)">
            <g id="User" transform="translate(1229.000000, 320.000000)">
                <ellipse id="Oval" stroke="#979797" fill="#FFFFFF" cx="23.5" cy="23.6324551" rx="23.5" ry="23.6324551"></ellipse>
                <path d="M23.5,46.7552083 C10.6729167,46.7552083 0.244791667,36.3270833 0.244791667,23.5 C0.244791667,10.6729167 10.6729167,0.244791667 23.5,0.244791667 C36.3270833,0.244791667 46.7552083,10.6729167 46.7552083,23.5 C46.7552083,36.3270833 36.3270833,46.7552083 23.5,46.7552083 Z M23.5,2.69270833 C12.04375,2.69270833 2.69270833,12.04375 2.69270833,23.5 C2.69270833,34.95625 12.04375,44.3072917 23.5,44.3072917 C34.95625,44.3072917 44.3072917,34.95625 44.3072917,23.5 C44.3072917,12.04375 34.95625,2.69270833 23.5,2.69270833 Z" id="Shape" fill="#BDBDBD"></path>
                <path d="M23.5,24.675 C27.171875,24.675 30.1583333,21.3947917 30.1583333,17.33125 C30.1583333,13.2677083 27.171875,9.9875 23.5,9.9875 C19.828125,9.9875 16.8416667,13.2677083 16.8416667,17.33125 C16.8416667,21.3947917 19.828125,24.675 23.5,24.675" id="Shape" fill="#BDBDBD"></path>
                <path d="M36.4739583,34.6625 L36.4739583,29.521875 C36.4739583,25.6541667 33.340625,24.7239583 29.521875,24.7239583 C29.521875,24.7239583 26.9760417,26.6822917 23.5489583,26.6822917 C20.2197917,26.6822917 17.5760417,24.7239583 17.5760417,24.7239583 C13.7572917,24.7239583 10.6239583,25.703125 10.6239583,29.521875 L10.6239583,34.7114583 C10.6239583,34.7114583 16.4010417,37.6489583 23.5979167,37.3552083 C32.01875,37.0125 36.4739583,34.6625 36.4739583,34.6625 Z" id="Shape" fill="#BDBDBD"></path>
            </g>
        </g>
    </g>
</svg>