<?xml version="1.0" encoding="UTF-8" standalone="no"?>
<svg width="26px" height="26px" viewBox="0 0 26 26" version="1.1" xmlns="http://www.w3.org/2000/svg" xmlns:xlink="http://www.w3.org/1999/xlink">
    <!-- Generator: Sketch 40.3 (33839) - http://www.bohemiancoding.com/sketch -->
    <title>video icon</title>
    <desc>Created with Sketch.</desc>
    <defs></defs>
    <g id="Desktop" stroke="none" stroke-width="1" fill="none" fill-rule="evenodd">
        <g id="Messages-Main" transform="translate(-343.000000, -649.000000)">
            <g id="video-icon" transform="translate(344.000000, 650.000000)">
                <g id="noun_538365_cc" transform="translate(4.000000, 7.000000)" fill="#B9B9B9">
                    <g id="Group">
                        <path d="M11.0769231,0.366666667 L1.53846154,0.366666667 C0.984615385,0.366666667 0.553846154,0.794444444 0.553846154,1.34444444 L0.553846154,8.49444444 C0.553846154,9.04444444 0.984615385,9.47222222 1.53846154,9.47222222 L11.0769231,9.47222222 C11.6307692,9.47222222 12.0615385,9.04444444 12.0615385,8.49444444 L12.0615385,1.34444444 C12.0615385,0.794444444 11.6307692,0.366666667 11.0769231,0.366666667 L11.0769231,0.366666667 Z M10.5230769,7.02777778 C10.5230769,7.45555556 10.1538462,7.82222222 9.66153846,7.82222222 L2.95384615,7.82222222 C2.46153846,7.82222222 2.09230769,7.45555556 2.09230769,7.02777778 L2.09230769,2.75 C2.09230769,2.32222222 2.46153846,1.95555556 2.95384615,1.95555556 L9.72307692,1.95555556 C10.2153846,1.95555556 10.5846154,2.32222222 10.5846154,2.75 L10.5846154,7.02777778 L10.5230769,7.02777778 Z" id="Shape"></path>
                        <polygon id="Shape" points="5.35384615 6.78333333 7.75384615 4.88888889 5.35384615 2.99444444"></polygon>
                        <path d="M15.0153846,1.58888889 C14.8307692,1.52777778 14.5846154,1.58888889 14.4615385,1.77222222 L12.9846154,3.48333333 L12.9846154,6.35555556 L14.4615385,8.06666667 C14.5230769,8.18888889 14.7076923,8.25 14.8923077,8.25 L15.0153846,8.25 C15.2,8.18888889 15.3846154,8.00555556 15.3846154,7.82222222 L15.3846154,2.13888889 C15.3846154,1.83333333 15.2615385,1.65 15.0153846,1.58888889 L15.0153846,1.58888889 Z" id="Shape"></path>
                    </g>
                </g>
                <ellipse id="Oval-2-Copy" stroke="#BDBDBD" cx="12" cy="12" rx="12" ry="12"></ellipse>
            </g>
        </g>
    </g>
</svg>