<?xml version="1.0" encoding="UTF-8" standalone="no"?>
<svg width="46px" height="46px" viewBox="0 0 46 46" version="1.1" xmlns="http://www.w3.org/2000/svg" xmlns:xlink="http://www.w3.org/1999/xlink">
    <!-- Generator: Sketch 40.3 (33839) - http://www.bohemiancoding.com/sketch -->
    <title>Vision Edit Icon</title>
    <desc>Created with Sketch.</desc>
    <defs></defs>
    <g id="Desktop" stroke="none" stroke-width="1" fill="none" fill-rule="evenodd">
        <g id="MyplanMain" transform="translate(-1365.000000, -177.000000)">
            <g id="MY-VISION-&amp;-PHOTO" transform="translate(0.000000, 151.000000)">
                <g id="Vision-Edit-Icon" transform="translate(1365.000000, 26.000000)">
                    <circle id="Oval-7" fill="#A7A7A7" opacity="0.532416045" cx="23" cy="23" r="23"></circle>
                    <g id="noun_575421_cc" transform="translate(12.650000, 11.500000)" fill="#FFFFFF">
                        <g id="Group">
                            <g id="Shape">
                                <path d="M0,20.4394119 L4.91738019,18.6636913 L1.84401693,15.5903287 L0,20.4394119 L0,20.4394119 L0,20.4394119 L0,20.4394119 Z M2.8684722,13.951202 L6.48821032,17.5709402 L17.4840174,6.57513202 L13.8642793,2.95539403 L2.8684722,13.951202 L2.8684722,13.951202 L2.8684722,13.951202 L2.8684722,13.951202 Z M18.7816595,1.58945507 C18.3035817,1.11137646 17.6889085,0.90648566 17.0059396,0.90648566 C16.3912664,0.90648566 15.7082975,1.17967348 15.2302184,1.58945507 L18.7816595,5.20919319 C19.8061135,4.18473895 19.8061135,2.61390932 18.7816595,1.58945507 L18.7816595,1.58945507 L18.7816595,1.58945507 L18.7816595,1.58945507 Z"></path>
                            </g>
                        </g>
                    </g>
                </g>
            </g>
        </g>
    </g>
</svg>