<?xml version="1.0" encoding="UTF-8" standalone="no"?>
<svg width="24px" height="24px" viewBox="0 0 24 24" version="1.1" xmlns="http://www.w3.org/2000/svg" xmlns:xlink="http://www.w3.org/1999/xlink">
    <!-- Generator: Sketch 41.2 (35397) - http://www.bohemiancoding.com/sketch -->
    <title>Write New Message Icon</title>
    <desc>Created with Sketch.</desc>
    <defs></defs>
    <g id="Page-1" stroke="none" stroke-width="1" fill="none" fill-rule="evenodd">
        <g id="Provider-Messages" transform="translate(-1123.000000, -265.000000)" fill="#FFFFFF">
            <g id="Write-New-Message-Icon" transform="translate(1123.000000, 265.000000)">
                <g id="Group">
                    <path d="M12.4354667,12.4282667 L11.5352,11.5426667 L10.8528,13.1106667 L12.4354667,12.4282667 Z M19.1578667,6.432 L17.5461333,4.82026667 L12.7258667,9.64053333 L14.3376,11.2522667 L19.1578667,6.432 Z M21.4664,7.20133333 L18.04,10.6424 L15.1072,13.5608 L14.7733333,13.7930667 C14.7442667,13.8074667 14.7298667,13.8074667 14.7008,13.8221333 L14.6864,13.8221333 L9.37253333,16.1450667 L9.05306667,16.4645333 C8.6176,16.8856 7.9352,16.8856 7.51413333,16.4645333 C7.07866667,16.0434667 7.07866667,15.3466667 7.51413333,14.9256 L7.8336,14.6061333 L10.0986667,9.43733333 C10.1130667,9.40826667 10.1130667,9.3792 10.1277333,9.35013333 C10.1421333,9.292 10.1568,9.24853333 10.1858667,9.20506667 L10.4037333,8.8712 L13.3365333,5.9528 L16.7776,2.51173333 L18.3021333,0.9728 C18.9546667,0.333866667 19.8112,0 20.6533333,0 C21.4954667,0 22.352,0.333866667 23.0053333,0.9728 C23.6442667,1.62613333 23.9781333,2.46826667 23.9781333,3.3248 C23.9781333,4.16693333 23.6442667,5.02346667 23.0053333,5.6624 L21.4664,7.20133333 Z M21.4664,2.51173333 C21.2341333,2.29386667 20.9437333,2.17786667 20.6533333,2.17786667 C20.3629333,2.17786667 20.0725333,2.29413333 19.8546667,2.51173333 L19.0850667,3.28133333 L20.6968,4.89306667 L21.4664,4.12346667 C21.6842667,3.9056 21.8002667,3.6152 21.8002667,3.3248 C21.8002667,3.02 21.6842667,2.744 21.4664,2.51173333 Z" id="Shape"></path>
                    <path d="M19.9565333,11.4701333 C20.5517333,11.4701333 21.0453333,11.9637333 21.0453333,12.5589333 L21.0453333,20.3992 C21.0309333,22.3738667 19.4338667,23.9856 17.4445333,24 L3.6224,24 C1.63333333,23.9856 0.0216,22.3882667 0.0216,20.3992 L0.0216,6.57706667 C0.0216,4.55893333 1.64773333,2.97626667 3.6224,2.97626667 L11.4482667,2.97626667 C12.0434667,2.97626667 12.5370667,3.45546667 12.5370667,4.06506667 C12.5370667,4.35546667 12.4208,4.6312 12.2176,4.83466667 C12.0144,5.02346667 11.7530667,5.15413333 11.448,5.15413333 L3.6224,5.15413333 C2.8384,5.15413333 2.19946667,5.7784 2.19946667,6.57706667 L2.19946667,20.3992 C2.19946667,20.7768 2.3592,21.1250667 2.62053333,21.4010667 C2.88186667,21.6624 3.2304,21.8221333 3.6224,21.8221333 L17.4445333,21.8221333 C17.8365333,21.8221333 18.1850667,21.6624 18.4464,21.4010667 C18.7077333,21.1397333 18.8674667,20.7768 18.8674667,20.3992 L18.8674667,12.5589333 C18.8674667,12.2541333 18.9837333,11.9928 19.1869333,11.7893333 C19.3757333,11.5861333 19.6514667,11.4701333 19.9565333,11.4701333 Z" id="Shape"></path>
                </g>
            </g>
        </g>
    </g>
</svg>