<?xml version="1.0" encoding="UTF-8" standalone="no"?>
<svg width="35px" height="36px" viewBox="0 0 35 36" version="1.1" xmlns="http://www.w3.org/2000/svg" xmlns:xlink="http://www.w3.org/1999/xlink">
    <!-- Generator: Sketch 40.3 (33839) - http://www.bohemiancoding.com/sketch -->
    <title>X</title>
    <desc>Created with Sketch.</desc>
    <defs>
        <ellipse id="path-1" cx="17.5" cy="17.7024828" rx="17.5" ry="17.5"></ellipse>
        <mask id="mask-2" maskContentUnits="userSpaceOnUse" maskUnits="objectBoundingBox" x="0" y="0" width="35" height="35" fill="white">
            <use xlink:href="#path-1"></use>
        </mask>
    </defs>
    <g id="Mobile" stroke="none" stroke-width="1" fill="none" fill-rule="evenodd">
        <g id="Mobile-Menu" transform="translate(-264.000000, -26.000000)">
            <g id="X" transform="translate(264.000000, 26.000000)">
                <use id="30-x-30-Circle" stroke="#CFCFCF" mask="url(#mask-2)" stroke-width="2" xlink:href="#path-1"></use>
                <path d="M16.8994949,17.1019777 L16.8994949,12.435311 L16.8994949,11.2686444 L19.2328283,11.2686444 L19.2328283,12.435311 L19.2328283,17.1019777 L23.8994949,17.1019777 L25.0661616,17.1019777 L25.0661616,19.435311 L23.8994949,19.435311 L19.2328283,19.435311 L19.2328283,24.1019777 L19.2328283,25.2686444 L16.8994949,25.2686444 L16.8994949,24.1019777 L16.8994949,19.435311 L12.2328283,19.435311 L11.0661616,19.435311 L11.0661616,17.1019777 L12.2328283,17.1019777 L16.8994949,17.1019777 Z" fill="#D8D8D8" transform="translate(18.066162, 18.268644) rotate(-315.000000) translate(-18.066162, -18.268644) "></path>
            </g>
        </g>
    </g>
</svg>